{
    "asset" : {
        "generator" : "Khronos glTF Blender I/O v3.4.50",
        "version" : "2.0"
    },
    "scene" : 0,
    "scenes" : [
        {
            "name" : "Scene",
            "nodes" : [
                0
            ]
        }
    ],
    "nodes" : [
        {
            "mesh" : 0,
            "name" : "Curve.003",
            "scale" : [
                160.2044677734375,
                160.2044677734375,
                160.2044677734375
            ],
            "translation" : [
                -5.901987552642822,
                -0.05242622643709183,
                6.848211288452148
            ]
        }
    ],
    "materials" : [
        {
            "doubleSided" : true,
            "name" : "Hexagon Mirror",
            "normalTexture" : {
                "index" : 0,
                "scale" : 0.30000007152557373,
                "texCoord" : 1
            },
            "pbrMetallicRoughness" : {
                "baseColorFactor" : [
                    0.800000011920929,
                    0.800000011920929,
                    0.800000011920929,
                    1
                ],
                "metallicRoughnessTexture" : {
                    "index" : 1,
                    "texCoord" : 1
                }
            }
        }
    ],
    "meshes" : [
        {
            "name" : "Curve.003",
            "primitives" : [
                {
                    "attributes" : {
                        "POSITION" : 0,
                        "TEXCOORD_0" : 1,
                        "TEXCOORD_1" : 2,
                        "NORMAL" : 3
                    },
                    "indices" : 4,
                    "material" : 0
                }
            ]
        }
    ],
    "textures" : [
        {
            "sampler" : 0,
            "source" : 0
        },
        {
            "sampler" : 0,
            "source" : 1
        }
    ],
    "images" : [
        {
            "bufferView" : 5,
            "mimeType" : "image/png",
            "name" : "1673154156_grizly-club-p-besshovnaya-tekstura-sot-7"
        },
        {
            "bufferView" : 6,
            "mimeType" : "image/png",
            "name" : "1673154156_grizly-club-p-besshovnaya-tekstura-sot-7"
        }
    ],
    "accessors" : [
        {
            "bufferView" : 0,
            "componentType" : 5126,
            "count" : 6283,
            "max" : [
                0.06932125240564346,
                0.0010000000474974513,
                -0.007340777665376663
            ],
            "min" : [
                0.004480368457734585,
                -0.0010000000474974513,
                -0.08933957666158676
            ],
            "type" : "VEC3"
        },
        {
            "bufferView" : 1,
            "componentType" : 5126,
            "count" : 6283,
            "type" : "VEC2"
        },
        {
            "bufferView" : 2,
            "componentType" : 5126,
            "count" : 6283,
            "type" : "VEC2"
        },
        {
            "bufferView" : 3,
            "componentType" : 5126,
            "count" : 6283,
            "type" : "VEC3"
        },
        {
            "bufferView" : 4,
            "componentType" : 5123,
            "count" : 11856,
            "type" : "SCALAR"
        }
    ],
    "bufferViews" : [
        {
            "buffer" : 0,
            "byteLength" : 75396,
            "byteOffset" : 0,
            "target" : 34962
        },
        {
            "buffer" : 0,
            "byteLength" : 50264,
            "byteOffset" : 75396,
            "target" : 34962
        },
        {
            "buffer" : 0,
            "byteLength" : 50264,
            "byteOffset" : 125660,
            "target" : 34962
        },
        {
            "buffer" : 0,
            "byteLength" : 75396,
            "byteOffset" : 175924,
            "target" : 34962
        },
        {
            "buffer" : 0,
            "byteLength" : 23712,
            "byteOffset" : 251320,
            "target" : 34963
        },
        {
            "buffer" : 0,
            "byteLength" : 115854,
            "byteOffset" : 275032
        },
        {
            "buffer" : 0,
            "byteLength" : 44216,
            "byteOffset" : 390888
        }
    ],
    "samplers" : [
        {
            "magFilter" : 9729,
            "minFilter" : 9987
        }
    ],
    "buffers" : [
        {
            "byteLength" : 435104,
            "uri" : "data:application/octet-stream;base64,"
        }
    ]
}
